<?xml version="1.0" encoding="UTF-8" standalone="no"?>
<svg
   xmlns:dc="http://purl.org/dc/elements/1.1/"
   xmlns:cc="http://creativecommons.org/ns#"
   xmlns:rdf="http://www.w3.org/1999/02/22-rdf-syntax-ns#"
   xmlns:svg="http://www.w3.org/2000/svg"
   xmlns="http://www.w3.org/2000/svg"
   xmlns:sodipodi="http://sodipodi.sourceforge.net/DTD/sodipodi-0.dtd"
   xmlns:inkscape="http://www.inkscape.org/namespaces/inkscape"
   viewBox="0 0 512 512"
   version="1.1"
   id="svg4"
   sodipodi:docname="times-circle.svg"
   inkscape:version="0.92.2 5c3e80d, 2017-08-06">
  <metadata
     id="metadata10">
    <rdf:RDF>
      <cc:Work
         rdf:about="">
        <dc:format>image/svg+xml</dc:format>
        <dc:type
           rdf:resource="http://purl.org/dc/dcmitype/StillImage" />
      </cc:Work>
    </rdf:RDF>
  </metadata>
  <defs
     id="defs8" />
  <sodipodi:namedview
     pagecolor="#ffffff"
     bordercolor="#666666"
     borderopacity="1"
     objecttolerance="10"
     gridtolerance="10"
     guidetolerance="10"
     inkscape:pageopacity="0"
     inkscape:pageshadow="2"
     inkscape:window-width="1660"
     inkscape:window-height="1023"
     id="namedview6"
     showgrid="false"
     inkscape:zoom="0.4609375"
     inkscape:cx="-235.38983"
     inkscape:cy="260.33898"
     inkscape:window-x="2582"
     inkscape:window-y="278"
     inkscape:window-maximized="0"
     inkscape:current-layer="svg4" />
  <path
     d="M256 8C119 8 8 119 8 256s111 248 248 248 248-111 248-248S393 8 256 8zm0 448c-110.5 0-200-89.5-200-200S145.5 56 256 56s200 89.5 200 200-89.5 200-200 200zm101.8-262.2L295.6 256l62.2 62.2c4.7 4.7 4.7 12.3 0 17l-22.6 22.6c-4.7 4.7-12.3 4.7-17 0L256 295.6l-62.2 62.2c-4.7 4.7-12.3 4.7-17 0l-22.6-22.6c-4.7-4.7-4.7-12.3 0-17l62.2-62.2-62.2-62.2c-4.7-4.7-4.7-12.3 0-17l22.6-22.6c4.7-4.7 12.3-4.7 17 0l62.2 62.2 62.2-62.2c4.7-4.7 12.3-4.7 17 0l22.6 22.6c4.7 4.7 4.7 12.3 0 17z"
     id="path2" />
  <path
     style="stroke-width:2.16949153;fill:#a52a2a"
     d="M 229.11117,501.55852 C 112.24613,488.24821 20.347487,394.17177 10.475628,277.74175 4.285029,204.729 28.222245,137.69327 79.572246,84.237945 144.7067,16.433015 245.07034,-8.1419496 333.97207,21.945796 c 37.73088,12.769576 67.45444,31.300169 96.00974,59.855457 67.35694,67.356947 89.8102,163.124927 59.4744,253.671217 -27.60316,82.38993 -101.06974,146.59506 -186.13938,162.67402 -22.33928,4.22233 -54.22033,5.68824 -74.20566,3.41203 z m 62.17852,-47.81149 C 390.08664,436.24793 462.16971,345.81268 456.34324,246.67119 451.00685,155.86882 391.64587,83.433572 304.16271,60.972859 275.6723,53.658136 234.31073,53.961424 205.3129,61.697686 135.87382,80.223173 82.164391,133.06666 62.12877,202.57331 c -5.872635,20.37307 -8.004328,62.62375 -4.313823,85.50104 11.773668,72.98454 63.621213,134.39538 133.534203,158.16465 27.76364,9.43918 70.78878,12.67144 99.94054,7.50803 z"
     id="path4506"
     inkscape:connector-curvature="0" />
  <path
     style="fill:#a52a2a;stroke-width:2.16949153"
     d="m 167.45466,347.58566 c -7.68525,-7.37975 -14.56587,-15.77924 -15.29029,-18.66553 -1.1408,-4.54531 3.07814,-9.64992 31.51689,-38.13313 18.0587,-18.08694 32.83399,-33.86237 32.83399,-35.05652 0,-1.19414 -14.64406,-16.79083 -32.54237,-34.65929 -17.8983,-17.86847 -32.54237,-33.99092 -32.54237,-35.82767 0,-5.71343 28.67896,-32.51132 34.79344,-32.51132 4.06513,0 13.41132,8.0283 37.88536,32.54322 l 32.48896,32.54321 32.59411,-32.54321 c 24.7317,-24.69309 33.9114,-32.54322 38.05506,-32.54322 7.53311,0 32.45425,25.05447 32.45425,32.62787 0,4.05985 -8.0347,13.4138 -32.51225,37.85054 l -32.51225,32.45805 32.51225,32.75736 c 24.58957,24.77495 32.51225,34.08601 32.51225,38.20974 0,3.90061 -4.26208,9.56708 -14.97549,19.91 -8.23653,7.9517 -16.21976,14.45763 -17.74052,14.45763 -1.52075,0 -17.51948,-14.64407 -35.55272,-32.54237 -18.03324,-17.89831 -33.68519,-32.54238 -34.78211,-32.54238 -1.09692,0 -16.74887,14.64407 -34.78212,32.54238 -18.03324,17.8983 -34.50967,32.54237 -36.6143,32.54237 -2.10463,0 -10.11452,-6.03798 -17.79977,-13.41773 z"
     id="path4508"
     inkscape:connector-curvature="0" />
  <path
     style="fill:#a52a2a;stroke-width:2.16949153"
     d="M 215.21356,498.55909 C 149.5419,486.93565 88.334514,447.44602 52.542776,393.60755 -44.022081,248.35328 34.290243,54.160761 204.86418,15.893374 c 24.78071,-5.559425 70.85645,-6.6400904 93.77895,-2.199502 48.51324,9.398071 90.5333,30.798609 125.27929,63.803893 50.51843,47.987575 77.12273,109.394375 77.24153,178.285285 0.11802,68.37734 -25.3824,128.17612 -75.11994,176.15787 -22.1977,21.41408 -39.57266,33.63955 -65.73846,46.25528 -43.04295,20.75294 -98.73104,28.56847 -145.09199,20.36289 z m 98.71186,-49.65738 C 373.08731,429.75681 419.24094,388.03985 442.15444,332.99912 461.5166,286.48914 461.70518,228.9503 442.65155,181.32374 419.26838,122.87502 369.91375,78.668386 308.50169,61.166557 293.45963,56.87972 286.3734,56.239907 255.34915,56.367438 222.93977,56.500662 217.74673,57.06563 200.46842,62.338098 144.70616,79.353934 100.64089,116.26843 75.730571,166.8339 c -15.549,31.56291 -19.941129,51.86919 -19.943051,92.20339 -0.0037,75.63596 42.653169,143.52191 111.56895,177.55598 31.90783,15.75767 53.30882,19.90333 97.75539,18.93654 26.09146,-0.56754 32.97233,-1.50186 48.81356,-6.6281 z"
     id="path4510"
     inkscape:connector-curvature="0" />
  <path
     style="fill:#a52a2a;stroke-width:2.16949153"
     d="m 167.12316,345.09379 c -7.55706,-7.55707 -13.74011,-15.38817 -13.74011,-17.40247 0,-2.01429 14.14428,-18.52954 31.43174,-36.70056 17.28745,-18.17102 31.44294,-34.01449 31.45664,-35.20771 0.0137,-1.19322 -14.13057,-17.03615 -31.43173,-35.20651 -17.30116,-18.17037 -31.45665,-34.3094 -31.45665,-35.86453 0,-3.31862 22.81773,-26.06129 29.6302,-29.53274 4.07445,-2.07622 6.183,-1.07522 16.27119,7.72445 6.37457,5.56038 22.08707,20.41998 34.91665,33.02134 l 23.32651,22.91157 30.91078,-30.64916 c 17.00092,-16.85704 32.9984,-31.70656 35.54994,-32.99893 3.90351,-1.97715 6.1495,-1.19653 14.1637,4.92276 5.23849,3.99988 12.3061,11.28633 15.7058,16.1921 l 6.18127,8.91957 -5.9939,7.85842 c -3.29665,4.32213 -17.93618,20.19815 -32.53229,35.28004 l -26.53838,27.42162 27.06136,28.20339 c 14.88374,15.51187 29.51248,31.37374 32.50831,35.24861 5.16194,6.67656 5.26381,7.32474 1.94684,12.38707 -5.0926,7.7723 -25.82874,27.2069 -29.03175,27.20953 -1.50554,10e-4 -17.4046,-13.90962 -35.33126,-30.91301 -17.92666,-17.00339 -33.64182,-31.2761 -34.92258,-31.71714 -1.28076,-0.44104 -10.27661,6.91426 -19.99078,16.34511 -36.55246,35.48642 -48.80877,46.28729 -52.52462,46.28729 -2.10472,0 -10.00981,-6.18305 -17.56688,-13.74011 z"
     id="path4512"
     inkscape:connector-curvature="0" />
</svg>
