<?xml version="1.0" encoding="UTF-8" standalone="no"?>
<!-- Created with Inkscape (http://www.inkscape.org/) -->

<svg
   xmlns:dc="http://purl.org/dc/elements/1.1/"
   xmlns:cc="http://creativecommons.org/ns#"
   xmlns:rdf="http://www.w3.org/1999/02/22-rdf-syntax-ns#"
   xmlns:svg="http://www.w3.org/2000/svg"
   xmlns="http://www.w3.org/2000/svg"
   version="1.1"
   width="1536"
   height="1536.0001"
   id="svg4001">
  <metadata
     id="metadata4009">
    <rdf:RDF>
      <cc:Work
         rdf:about="">
        <dc:format>image/svg+xml</dc:format>
        <dc:type
           rdf:resource="http://purl.org/dc/dcmitype/StillImage" />
        <dc:title></dc:title>
      </cc:Work>
    </rdf:RDF>
  </metadata>
  <defs
     id="defs4007" />
  <path
     d="M 1097,951.00012 950.99997,1097.0001 q -10,10 -23,10 -13,0 -23,-10 l -137,-136.99998 L 631,1097.0001 q -10,10 -23,10 -13,0 -23,-10 L 439,951.00012 q -10,-10 -10,-23 0,-13 10,-23 L 576,768.00002 439,631.00004 Q 429,621 429,608 q 0,-13 10,-23 L 585,439 q 10,-10 23,-10 13,0 23,10 l 136.99997,137 137,-137 q 10,-10 23,-10 13,0 23,10 L 1097,585 q 10,10 10,23 0,13 -10,23.00004 L 959.99997,768.00002 1097,905.00012 q 10,10 10,23 0,13 -10,23 z m 215,-183.0001 Q 1312,620 1239,495 1166,370 1041,297 915.99997,224 767.99997,224 620,224 495,297 370,370 297.00001,495 q -73,125 -73,273.00002 0,148.0001 73,273.00008 72.99999,125 197.99999,198 125,73 272.99997,73 148,0 273.00003,-73 125,-73 198,-198 73,-124.99998 73,-273.00008 z m 224,0 q 0,209.0001 -103,385.50008 -103,176.5 -279.5,279.5 -176.50003,103 -385.50003,103 -208.99997,0 -385.49997,-103 -176.49999,-103 -279.49999,-279.5 Q 0,977.00012 0,768.00002 0,559 103.00001,382.5 206.00001,206 382.5,103 559,0 767.99997,0 976.99997,0 1153.5,103 1330,206 1433,382.5 1536,559 1536,768.00002 z"
     id="path4003"
     style="fill:#a81a1a;fill-opacity:1" />
</svg>
