<?xml version="1.0" encoding="UTF-8" standalone="no"?>
<!-- Created with Inkscape (http://www.inkscape.org/) -->

<svg
   xmlns:dc="http://purl.org/dc/elements/1.1/"
   xmlns:cc="http://creativecommons.org/ns#"
   xmlns:rdf="http://www.w3.org/1999/02/22-rdf-syntax-ns#"
   xmlns:svg="http://www.w3.org/2000/svg"
   xmlns="http://www.w3.org/2000/svg"
   version="1.1"
   width="1280"
   height="1536.0001"
   id="svg2">
  <metadata
     id="metadata10">
    <rdf:RDF>
      <cc:Work
         rdf:about="">
        <dc:format>image/svg+xml</dc:format>
        <dc:type
           rdf:resource="http://purl.org/dc/dcmitype/StillImage" />
        <dc:title></dc:title>
      </cc:Work>
    </rdf:RDF>
  </metadata>
  <defs
     id="defs8" />
  <path
     d="M 1088,832.00012 V 192 H 640 v 1137.0001 q 118.99997,-63 212.99997,-137 Q 1088,1008.0001 1088,832.00012 z M 1280,64 v 768.00012 q 0,86 -33.5,170.49998 -33.5,84.5 -83,150 -49.5,65.5 -118,127.5 -68.50003,62 -126.50003,103 -58,41 -121,77.5 -63,36.5 -89.5,49.5 -26.49997,13 -42.49997,20 -12,6 -26,6 -14,0 -26,-6 -16,-7 -42.5,-20 -26.5,-13 -89.5,-49.5 -63,-36.5 -121,-77.5 -58,-41 -126.49999,-103 -68.5,-62 -118,-127.5 Q 67,1087.0001 33.5,1002.5001 0,918.00012 0,832.00012 V 64 Q 0,38 19,19 38,0 64,0 h 1152 q 26,0 45,19 19,19 19,45 z"
     id="path4" />
</svg>
